<svg xmlns="http://www.w3.org/2000/svg" version="1.1" xmlns:xlink="http://www.w3.org/1999/xlink" xmlns:svgjs="http://svgjs.dev/svgjs" viewBox="0 0 1422 800" opacity="0.25"><circle r="10.5" cx="939" cy="417" stroke-width="2" stroke="hsl(284, 50%, 50%)" fill="none" opacity="0.77"></circle><circle r="14.5" cx="389" cy="126" stroke-width="2" stroke="hsl(153, 50%, 50%)" fill="none" opacity="0.72"></circle><circle r="14" cx="836" cy="778" stroke-width="2" stroke="hsl(292, 50%, 50%)" fill="none" opacity="0.99"></circle><circle r="13.5" cx="550" cy="620" stroke-width="2" stroke="hsl(255, 50%, 50%)" fill="none" opacity="0.22"></circle><circle r="11" cx="354" cy="297" stroke-width="2" stroke="hsl(181, 50%, 50%)" fill="none" opacity="0.19"></circle><circle r="22.5" cx="952" cy="173" stroke-width="2" stroke="hsl(291, 50%, 50%)" fill="none" opacity="0.94"></circle><circle r="10.5" cx="1218" cy="779" stroke-width="2" stroke="hsl(171, 50%, 50%)" fill="none" opacity="0.87"></circle><circle r="13.5" cx="1066" cy="686" stroke-width="2" stroke="hsl(257, 50%, 50%)" fill="none" opacity="0.42"></circle><circle r="21" cx="989" cy="100" stroke-width="2" stroke="hsl(305, 50%, 50%)" fill="none" opacity="0.20"></circle><circle r="18.5" cx="178" cy="708" stroke-width="2" stroke="hsl(186, 50%, 50%)" fill="none" opacity="0.49"></circle><circle r="10" cx="906" cy="420" stroke-width="2" stroke="hsl(289, 50%, 50%)" fill="none" opacity="0.80"></circle><circle r="9" cx="1270" cy="768" stroke-width="2" stroke="hsl(124, 50%, 50%)" fill="none" opacity="0.91"></circle><circle r="14.5" cx="417" cy="723" stroke-width="2" stroke="hsl(204, 50%, 50%)" fill="none" opacity="0.11"></circle><circle r="11" cx="177" cy="168" stroke-width="2" stroke="hsl(183, 50%, 50%)" fill="none" opacity="0.34"></circle><circle r="18.5" cx="1015" cy="389" stroke-width="2" stroke="hsl(271, 50%, 50%)" fill="none" opacity="0.19"></circle><circle r="19" cx="761" cy="724" stroke-width="2" stroke="hsl(292, 50%, 50%)" fill="none" opacity="0.29"></circle><circle r="17.5" cx="450" cy="494" stroke-width="2" stroke="hsl(222, 50%, 50%)" fill="none" opacity="0.93"></circle><circle r="22.5" cx="1109" cy="358" stroke-width="2" stroke="hsl(238, 50%, 50%)" fill="none" opacity="0.71"></circle><circle r="16.5" cx="98" cy="692" stroke-width="2" stroke="hsl(231, 50%, 50%)" fill="none" opacity="0.81"></circle><circle r="16.5" cx="646" cy="647" stroke-width="2" stroke="hsl(282, 50%, 50%)" fill="none" opacity="0.26"></circle><circle r="20.5" cx="893" cy="676" stroke-width="2" stroke="hsl(289, 50%, 50%)" fill="none" opacity="0.38"></circle><circle r="11.5" cx="982" cy="260" stroke-width="2" stroke="hsl(277, 50%, 50%)" fill="none" opacity="0.18"></circle><circle r="8" cx="168" cy="495" stroke-width="2" stroke="hsl(195, 50%, 50%)" fill="none" opacity="0.16"></circle><circle r="18.5" cx="28" cy="441" stroke-width="2" stroke="hsl(274, 50%, 50%)" fill="none" opacity="0.60"></circle><circle r="21" cx="548" cy="224" stroke-width="2" stroke="hsl(255, 50%, 50%)" fill="none" opacity="0.71"></circle><circle r="10.5" cx="768" cy="381" stroke-width="2" stroke="hsl(292, 50%, 50%)" fill="none" opacity="0.79"></circle><circle r="20.5" cx="114" cy="165" stroke-width="2" stroke="hsl(207, 50%, 50%)" fill="none" opacity="0.14"></circle><circle r="9" cx="1172" cy="639" stroke-width="2" stroke="hsl(200, 50%, 50%)" fill="none" opacity="0.44"></circle><circle r="10.5" cx="1394" cy="31" stroke-width="2" stroke="hsl(93, 50%, 50%)" fill="none" opacity="0.46"></circle><circle r="15" cx="597" cy="521" stroke-width="2" stroke="hsl(268, 50%, 50%)" fill="none" opacity="0.53"></circle><circle r="13" cx="140" cy="91" stroke-width="2" stroke="hsl(152, 50%, 50%)" fill="none" opacity="0.32"></circle><circle r="21.5" cx="894" cy="222" stroke-width="2" stroke="hsl(289, 50%, 50%)" fill="none" opacity="0.90"></circle><circle r="17" cx="586" cy="735" stroke-width="2" stroke="hsl(268, 50%, 50%)" fill="none" opacity="0.47"></circle><circle r="11.5" cx="1238" cy="717" stroke-width="2" stroke="hsl(155, 50%, 50%)" fill="none" opacity="0.21"></circle><circle r="17.5" cx="1184" cy="350" stroke-width="2" stroke="hsl(186, 50%, 50%)" fill="none" opacity="0.71"></circle><circle r="19" cx="521" cy="401" stroke-width="2" stroke="hsl(247, 50%, 50%)" fill="none" opacity="0.38"></circle><circle r="14" cx="328" cy="661" stroke-width="2" stroke="hsl(176, 50%, 50%)" fill="none" opacity="0.64"></circle><circle r="12.5" cx="344" cy="42" stroke-width="2" stroke="hsl(85, 50%, 50%)" fill="none" opacity="0.79"></circle><circle r="8.5" cx="280" cy="756" stroke-width="2" stroke="hsl(171, 50%, 50%)" fill="none" opacity="0.67"></circle><circle r="14.5" cx="615" cy="307" stroke-width="2" stroke="hsl(273, 50%, 50%)" fill="none" opacity="0.88"></circle><circle r="13.5" cx="1251" cy="206" stroke-width="2" stroke="hsl(140, 50%, 50%)" fill="none" opacity="0.27"></circle><circle r="14.5" cx="1268" cy="33" stroke-width="2" stroke="hsl(138, 50%, 50%)" fill="none" opacity="0.27"></circle><circle r="12" cx="1297" cy="392" stroke-width="2" stroke="hsl(109, 50%, 50%)" fill="none" opacity="0.55"></circle><circle r="13.5" cx="1022" cy="621" stroke-width="2" stroke="hsl(265, 50%, 50%)" fill="none" opacity="0.14"></circle><circle r="14.5" cx="648" cy="598" stroke-width="2" stroke="hsl(282, 50%, 50%)" fill="none" opacity="0.53"></circle><circle r="13.5" cx="1381" cy="758" stroke-width="2" stroke="hsl(54, 50%, 50%)" fill="none" opacity="0.76"></circle><circle r="17.5" cx="543" cy="540" stroke-width="2" stroke="hsl(255, 50%, 50%)" fill="none" opacity="0.14"></circle><circle r="9" cx="78" cy="785" stroke-width="2" stroke="hsl(245, 50%, 50%)" fill="none" opacity="0.19"></circle><circle r="17" cx="29" cy="261" stroke-width="2" stroke="hsl(274, 50%, 50%)" fill="none" opacity="0.61"></circle><circle r="12" cx="80" cy="287" stroke-width="2" stroke="hsl(245, 50%, 50%)" fill="none" opacity="0.49"></circle><circle r="13.5" cx="1323" cy="535" stroke-width="2" stroke="hsl(94, 50%, 50%)" fill="none" opacity="0.50"></circle><circle r="6.5" cx="1400" cy="667" stroke-width="2" stroke="hsl(43, 50%, 50%)" fill="none" opacity="0.37"></circle><circle r="12" cx="1251" cy="323" stroke-width="2" stroke="hsl(140, 50%, 50%)" fill="none" opacity="0.31"></circle><circle r="16.5" cx="969" cy="444" stroke-width="2" stroke="hsl(281, 50%, 50%)" fill="none" opacity="0.39"></circle><circle r="16" cx="221" cy="768" stroke-width="2" stroke="hsl(179, 50%, 50%)" fill="none" opacity="0.68"></circle><circle r="15" cx="770" cy="491" stroke-width="2" stroke="hsl(292, 50%, 50%)" fill="none" opacity="0.83"></circle><circle r="16" cx="396" cy="199" stroke-width="2" stroke="hsl(195, 50%, 50%)" fill="none" opacity="0.15"></circle><circle r="7" cx="288" cy="404" stroke-width="2" stroke="hsl(171, 50%, 50%)" fill="none" opacity="0.88"></circle><circle r="9" cx="743" cy="456" stroke-width="2" stroke="hsl(291, 50%, 50%)" fill="none" opacity="0.74"></circle><circle r="10.5" cx="135" cy="480" stroke-width="2" stroke="hsl(205, 50%, 50%)" fill="none" opacity="0.70"></circle><circle r="12.5" cx="684" cy="576" stroke-width="2" stroke="hsl(285, 50%, 50%)" fill="none" opacity="0.32"></circle><circle r="16" cx="792" cy="268" stroke-width="2" stroke="hsl(292, 50%, 50%)" fill="none" opacity="0.27"></circle><circle r="16.5" cx="1286" cy="467" stroke-width="2" stroke="hsl(124, 50%, 50%)" fill="none" opacity="0.75"></circle><circle r="13.5" cx="1159" cy="713" stroke-width="2" stroke="hsl(200, 50%, 50%)" fill="none" opacity="0.86"></circle><circle r="16" cx="772" cy="168" stroke-width="2" stroke="hsl(293, 50%, 50%)" fill="none" opacity="0.19"></circle><circle r="9.5" cx="214" cy="77" stroke-width="2" stroke="hsl(108, 50%, 50%)" fill="none" opacity="0.16"></circle><circle r="8.5" cx="262" cy="718" stroke-width="2" stroke="hsl(172, 50%, 50%)" fill="none" opacity="0.65"></circle><circle r="14" cx="271" cy="199" stroke-width="2" stroke="hsl(171, 50%, 50%)" fill="none" opacity="0.91"></circle><circle r="20.5" cx="954" cy="513" stroke-width="2" stroke="hsl(284, 50%, 50%)" fill="none" opacity="0.82"></circle><circle r="14" cx="1025" cy="59" stroke-width="2" stroke="hsl(304, 50%, 50%)" fill="none" opacity="0.21"></circle><circle r="17.5" cx="827" cy="372" stroke-width="2" stroke="hsl(292, 50%, 50%)" fill="none" opacity="0.57"></circle><circle r="13.5" cx="1062" cy="507" stroke-width="2" stroke="hsl(257, 50%, 50%)" fill="none" opacity="0.21"></circle><circle r="10.5" cx="167" cy="27" stroke-width="2" stroke="hsl(94, 50%, 50%)" fill="none" opacity="0.11"></circle><circle r="16.5" cx="849" cy="252" stroke-width="2" stroke="hsl(291, 50%, 50%)" fill="none" opacity="0.79"></circle><circle r="17" cx="1009" cy="487" stroke-width="2" stroke="hsl(271, 50%, 50%)" fill="none" opacity="0.15"></circle><circle r="16.5" cx="879" cy="381" stroke-width="2" stroke="hsl(290, 50%, 50%)" fill="none" opacity="0.25"></circle><circle r="6.5" cx="262" cy="388" stroke-width="2" stroke="hsl(172, 50%, 50%)" fill="none" opacity="0.46"></circle><circle r="15.5" cx="657" cy="117" stroke-width="2" stroke="hsl(263, 50%, 50%)" fill="none" opacity="0.52"></circle><circle r="15.5" cx="507" cy="489" stroke-width="2" stroke="hsl(239, 50%, 50%)" fill="none" opacity="0.23"></circle><circle r="9" cx="303" cy="782" stroke-width="2" stroke="hsl(173, 50%, 50%)" fill="none" opacity="0.62"></circle><circle r="10" cx="890" cy="454" stroke-width="2" stroke="hsl(289, 50%, 50%)" fill="none" opacity="0.78"></circle><circle r="16" cx="718" cy="494" stroke-width="2" stroke="hsl(289, 50%, 50%)" fill="none" opacity="0.86"></circle><circle r="14.5" cx="45" cy="754" stroke-width="2" stroke="hsl(260, 50%, 50%)" fill="none" opacity="0.78"></circle><circle r="10" cx="395" cy="64" stroke-width="2" stroke="hsl(112, 50%, 50%)" fill="none" opacity="0.98"></circle><circle r="10" cx="470" cy="744" stroke-width="2" stroke="hsl(231, 50%, 50%)" fill="none" opacity="0.68"></circle><circle r="10.5" cx="1190" cy="743" stroke-width="2" stroke="hsl(186, 50%, 50%)" fill="none" opacity="0.27"></circle><circle r="12.5" cx="540" cy="31" stroke-width="2" stroke="hsl(173, 50%, 50%)" fill="none" opacity="0.59"></circle><circle r="12.5" cx="951" cy="378" stroke-width="2" stroke="hsl(284, 50%, 50%)" fill="none" opacity="0.69"></circle><circle r="10.5" cx="183" cy="120" stroke-width="2" stroke="hsl(145, 50%, 50%)" fill="none" opacity="0.61"></circle><circle r="12.5" cx="1382" cy="227" stroke-width="2" stroke="hsl(54, 50%, 50%)" fill="none" opacity="0.33"></circle><circle r="20" cx="931" cy="80" stroke-width="2" stroke="hsl(324, 50%, 50%)" fill="none" opacity="0.20"></circle><circle r="11" cx="502" cy="631" stroke-width="2" stroke="hsl(239, 50%, 50%)" fill="none" opacity="0.65"></circle><circle r="17" cx="698" cy="691" stroke-width="2" stroke="hsl(287, 50%, 50%)" fill="none" opacity="0.68"></circle><circle r="8" cx="1282" cy="85" stroke-width="2" stroke="hsl(121, 50%, 50%)" fill="none" opacity="0.23"></circle><circle r="11.5" cx="570" cy="89" stroke-width="2" stroke="hsl(219, 50%, 50%)" fill="none" opacity="0.27"></circle><circle r="11" cx="365" cy="698" stroke-width="2" stroke="hsl(188, 50%, 50%)" fill="none" opacity="0.46"></circle><circle r="12.5" cx="418" cy="311" stroke-width="2" stroke="hsl(204, 50%, 50%)" fill="none" opacity="0.22"></circle><circle r="19.5" cx="150" cy="389" stroke-width="2" stroke="hsl(205, 50%, 50%)" fill="none" opacity="0.77"></circle><circle r="6.5" cx="259" cy="19" stroke-width="2" stroke="hsl(62, 50%, 50%)" fill="none" opacity="0.45"></circle><circle r="13.5" cx="768" cy="622" stroke-width="2" stroke="hsl(292, 50%, 50%)" fill="none" opacity="0.50"></circle><circle r="12.5" cx="1334" cy="32" stroke-width="2" stroke="hsl(106, 50%, 50%)" fill="none" opacity="0.11"></circle><circle r="9.5" cx="344" cy="778" stroke-width="2" stroke="hsl(181, 50%, 50%)" fill="none" opacity="0.19"></circle><circle r="15.5" cx="135" cy="762" stroke-width="2" stroke="hsl(205, 50%, 50%)" fill="none" opacity="0.61"></circle><circle r="29" cx="937" cy="754" stroke-width="2" stroke="hsl(284, 50%, 50%)" fill="none" opacity="0.75"></circle><circle r="10.5" cx="749" cy="91" stroke-width="2" stroke="hsl(287, 50%, 50%)" fill="none" opacity="0.89"></circle><circle r="16" cx="725" cy="559" stroke-width="2" stroke="hsl(289, 50%, 50%)" fill="none" opacity="0.87"></circle><circle r="17" cx="571" cy="355" stroke-width="2" stroke="hsl(262, 50%, 50%)" fill="none" opacity="0.16"></circle><circle r="17.5" cx="842" cy="547" stroke-width="2" stroke="hsl(292, 50%, 50%)" fill="none" opacity="0.73"></circle><circle r="12.5" cx="655" cy="66" stroke-width="2" stroke="hsl(238, 50%, 50%)" fill="none" opacity="0.49"></circle><circle r="15" cx="472" cy="202" stroke-width="2" stroke="hsl(231, 50%, 50%)" fill="none" opacity="0.56"></circle><circle r="12" cx="1314" cy="223" stroke-width="2" stroke="hsl(94, 50%, 50%)" fill="none" opacity="0.18"></circle><circle r="10.5" cx="255" cy="123" stroke-width="2" stroke="hsl(129, 50%, 50%)" fill="none" opacity="0.79"></circle><circle r="11.5" cx="200" cy="207" stroke-width="2" stroke="hsl(186, 50%, 50%)" fill="none" opacity="0.88"></circle><circle r="13.5" cx="1021" cy="717" stroke-width="2" stroke="hsl(271, 50%, 50%)" fill="none" opacity="0.83"></circle><circle r="14.5" cx="407" cy="599" stroke-width="2" stroke="hsl(204, 50%, 50%)" fill="none" opacity="0.50"></circle><circle r="13.5" cx="1157" cy="417" stroke-width="2" stroke="hsl(200, 50%, 50%)" fill="none" opacity="0.55"></circle><circle r="16" cx="798" cy="588" stroke-width="2" stroke="hsl(292, 50%, 50%)" fill="none" opacity="0.20"></circle><circle r="7.5" cx="1140" cy="15" stroke-width="2" stroke="hsl(245, 50%, 50%)" fill="none" opacity="0.65"></circle><circle r="14" cx="229" cy="523" stroke-width="2" stroke="hsl(174, 50%, 50%)" fill="none" opacity="0.55"></circle><circle r="16" cx="282" cy="562" stroke-width="2" stroke="hsl(171, 50%, 50%)" fill="none" opacity="0.95"></circle><circle r="11" cx="222" cy="409" stroke-width="2" stroke="hsl(179, 50%, 50%)" fill="none" opacity="0.57"></circle><circle r="19" cx="814" cy="466" stroke-width="2" stroke="hsl(292, 50%, 50%)" fill="none" opacity="0.36"></circle><circle r="16.5" cx="1105" cy="487" stroke-width="2" stroke="hsl(238, 50%, 50%)" fill="none" opacity="0.29"></circle><circle r="9" cx="437" cy="774" stroke-width="2" stroke="hsl(213, 50%, 50%)" fill="none" opacity="0.53"></circle><circle r="14" cx="1177" cy="105" stroke-width="2" stroke="hsl(200, 50%, 50%)" fill="none" opacity="0.58"></circle><circle r="15.5" cx="1074" cy="216" stroke-width="2" stroke="hsl(248, 50%, 50%)" fill="none" opacity="0.56"></circle><circle r="12" cx="255" cy="641" stroke-width="2" stroke="hsl(172, 50%, 50%)" fill="none" opacity="0.67"></circle><circle r="14.5" cx="399" cy="662" stroke-width="2" stroke="hsl(195, 50%, 50%)" fill="none" opacity="0.90"></circle><circle r="7.5" cx="1399" cy="367" stroke-width="2" stroke="hsl(54, 50%, 50%)" fill="none" opacity="0.53"></circle><circle r="11" cx="657" cy="289" stroke-width="2" stroke="hsl(282, 50%, 50%)" fill="none" opacity="0.58"></circle><circle r="15" cx="390" cy="476" stroke-width="2" stroke="hsl(195, 50%, 50%)" fill="none" opacity="0.73"></circle><circle r="9.5" cx="1337" cy="351" stroke-width="2" stroke="hsl(80, 50%, 50%)" fill="none" opacity="0.84"></circle><circle r="16.5" cx="465" cy="433" stroke-width="2" stroke="hsl(222, 50%, 50%)" fill="none" opacity="0.31"></circle><circle r="8" cx="284" cy="361" stroke-width="2" stroke="hsl(171, 50%, 50%)" fill="none" opacity="0.42"></circle><circle r="16" cx="451" cy="253" stroke-width="2" stroke="hsl(222, 50%, 50%)" fill="none" opacity="0.21"></circle><circle r="21.5" cx="42" cy="126" stroke-width="2" stroke="hsl(244, 50%, 50%)" fill="none" opacity="0.45"></circle><circle r="23.5" cx="1103" cy="107" stroke-width="2" stroke="hsl(250, 50%, 50%)" fill="none" opacity="0.99"></circle><circle r="14.5" cx="1189" cy="182" stroke-width="2" stroke="hsl(186, 50%, 50%)" fill="none" opacity="0.84"></circle><circle r="19" cx="888" cy="157" stroke-width="2" stroke="hsl(296, 50%, 50%)" fill="none" opacity="0.88"></circle><circle r="12" cx="1263" cy="269" stroke-width="2" stroke="hsl(140, 50%, 50%)" fill="none" opacity="0.93"></circle><circle r="12.5" cx="709" cy="137" stroke-width="2" stroke="hsl(281, 50%, 50%)" fill="none" opacity="0.52"></circle><circle r="21" cx="106" cy="580" stroke-width="2" stroke="hsl(231, 50%, 50%)" fill="none" opacity="0.43"></circle><circle r="11" cx="1317" cy="602" stroke-width="2" stroke="hsl(94, 50%, 50%)" fill="none" opacity="0.60"></circle><circle r="16" cx="1161" cy="276" stroke-width="2" stroke="hsl(200, 50%, 50%)" fill="none" opacity="0.54"></circle><circle r="20" cx="852" cy="613" stroke-width="2" stroke="hsl(291, 50%, 50%)" fill="none" opacity="0.15"></circle><circle r="15.5" cx="464" cy="552" stroke-width="2" stroke="hsl(222, 50%, 50%)" fill="none" opacity="0.21"></circle><circle r="12" cx="688" cy="302" stroke-width="2" stroke="hsl(285, 50%, 50%)" fill="none" opacity="0.49"></circle><circle r="11" cx="268" cy="321" stroke-width="2" stroke="hsl(171, 50%, 50%)" fill="none" opacity="0.72"></circle><circle r="8" cx="525" cy="673" stroke-width="2" stroke="hsl(247, 50%, 50%)" fill="none" opacity="0.87"></circle><circle r="17.5" cx="1069" cy="310" stroke-width="2" stroke="hsl(248, 50%, 50%)" fill="none" opacity="0.47"></circle><circle r="21" cx="47" cy="203" stroke-width="2" stroke="hsl(260, 50%, 50%)" fill="none" opacity="0.76"></circle><circle r="15.5" cx="783" cy="218" stroke-width="2" stroke="hsl(292, 50%, 50%)" fill="none" opacity="0.56"></circle><circle r="7.5" cx="469" cy="88" stroke-width="2" stroke="hsl(165, 50%, 50%)" fill="none" opacity="0.63"></circle><circle r="21.5" cx="986" cy="580" stroke-width="2" stroke="hsl(277, 50%, 50%)" fill="none" opacity="0.14"></circle><circle r="14.5" cx="968" cy="327" stroke-width="2" stroke="hsl(281, 50%, 50%)" fill="none" opacity="0.32"></circle><circle r="16.5" cx="673" cy="205" stroke-width="2" stroke="hsl(285, 50%, 50%)" fill="none" opacity="0.98"></circle><circle r="11" cx="1330" cy="692" stroke-width="2" stroke="hsl(94, 50%, 50%)" fill="none" opacity="0.45"></circle><circle r="9" cx="260" cy="443" stroke-width="2" stroke="hsl(172, 50%, 50%)" fill="none" opacity="0.77"></circle><circle r="10.5" cx="228" cy="298" stroke-width="2" stroke="hsl(174, 50%, 50%)" fill="none" opacity="0.75"></circle><circle r="11.5" cx="485" cy="122" stroke-width="2" stroke="hsl(191, 50%, 50%)" fill="none" opacity="0.25"></circle><circle r="17" cx="819" cy="664" stroke-width="2" stroke="hsl(292, 50%, 50%)" fill="none" opacity="0.37"></circle><circle r="9.5" cx="692" cy="83" stroke-width="2" stroke="hsl(266, 50%, 50%)" fill="none" opacity="0.38"></circle><circle r="18.5" cx="1023" cy="770" stroke-width="2" stroke="hsl(265, 50%, 50%)" fill="none" opacity="0.88"></circle><circle r="8" cx="380" cy="779" stroke-width="2" stroke="hsl(195, 50%, 50%)" fill="none" opacity="0.92"></circle><circle r="10" cx="362" cy="739" stroke-width="2" stroke="hsl(188, 50%, 50%)" fill="none" opacity="0.63"></circle><circle r="14" cx="925" cy="345" stroke-width="2" stroke="hsl(287, 50%, 50%)" fill="none" opacity="0.50"></circle><circle r="17" cx="601" cy="674" stroke-width="2" stroke="hsl(273, 50%, 50%)" fill="none" opacity="0.87"></circle><circle r="11" cx="1221" cy="140" stroke-width="2" stroke="hsl(163, 50%, 50%)" fill="none" opacity="0.12"></circle><circle r="11" cx="18" cy="394" stroke-width="2" stroke="hsl(288, 50%, 50%)" fill="none" opacity="0.77"></circle><circle r="14" cx="817" cy="736" stroke-width="2" stroke="hsl(292, 50%, 50%)" fill="none" opacity="0.25"></circle><circle r="15.5" cx="705" cy="626" stroke-width="2" stroke="hsl(287, 50%, 50%)" fill="none" opacity="0.48"></circle><circle r="17" cx="1250" cy="545" stroke-width="2" stroke="hsl(140, 50%, 50%)" fill="none" opacity="0.39"></circle><circle r="18.5" cx="127" cy="302" stroke-width="2" stroke="hsl(218, 50%, 50%)" fill="none" opacity="0.99"></circle><circle r="11.5" cx="718" cy="224" stroke-width="2" stroke="hsl(289, 50%, 50%)" fill="none" opacity="0.30"></circle><circle r="15.5" cx="1176" cy="514" stroke-width="2" stroke="hsl(200, 50%, 50%)" fill="none" opacity="0.49"></circle><circle r="17.5" cx="1058" cy="426" stroke-width="2" stroke="hsl(257, 50%, 50%)" fill="none" opacity="0.98"></circle><circle r="9.5" cx="586" cy="54" stroke-width="2" stroke="hsl(207, 50%, 50%)" fill="none" opacity="0.84"></circle><circle r="6.5" cx="474" cy="774" stroke-width="2" stroke="hsl(231, 50%, 50%)" fill="none" opacity="0.62"></circle><circle r="23" cx="927" cy="615" stroke-width="2" stroke="hsl(287, 50%, 50%)" fill="none" opacity="0.42"></circle><circle r="16" cx="546" cy="772" stroke-width="2" stroke="hsl(255, 50%, 50%)" fill="none" opacity="0.65"></circle><circle r="8" cx="1254" cy="111" stroke-width="2" stroke="hsl(131, 50%, 50%)" fill="none" opacity="0.70"></circle><circle r="18.5" cx="341" cy="593" stroke-width="2" stroke="hsl(181, 50%, 50%)" fill="none" opacity="0.44"></circle><circle r="13.5" cx="729" cy="311" stroke-width="2" stroke="hsl(289, 50%, 50%)" fill="none" opacity="0.47"></circle><circle r="14.5" cx="871" cy="488" stroke-width="2" stroke="hsl(290, 50%, 50%)" fill="none" opacity="0.90"></circle><circle r="13" cx="729" cy="424" stroke-width="2" stroke="hsl(289, 50%, 50%)" fill="none" opacity="0.71"></circle><circle r="15" cx="505" cy="585" stroke-width="2" stroke="hsl(239, 50%, 50%)" fill="none" opacity="0.29"></circle><circle r="19.5" cx="720" cy="770" stroke-width="2" stroke="hsl(289, 50%, 50%)" fill="none" opacity="0.29"></circle><circle r="8" cx="437" cy="76" stroke-width="2" stroke="hsl(144, 50%, 50%)" fill="none" opacity="0.24"></circle><circle r="12" cx="1022" cy="169" stroke-width="2" stroke="hsl(276, 50%, 50%)" fill="none" opacity="0.75"></circle><circle r="19" cx="888" cy="27" stroke-width="2" stroke="hsl(330, 50%, 50%)" fill="none" opacity="0.49"></circle><circle r="9" cx="276" cy="257" stroke-width="2" stroke="hsl(171, 50%, 50%)" fill="none" opacity="0.62"></circle><circle r="14" cx="728" cy="374" stroke-width="2" stroke="hsl(289, 50%, 50%)" fill="none" opacity="0.69"></circle><circle r="11.5" cx="1317" cy="298" stroke-width="2" stroke="hsl(94, 50%, 50%)" fill="none" opacity="0.18"></circle><circle r="14" cx="858" cy="715" stroke-width="2" stroke="hsl(291, 50%, 50%)" fill="none" opacity="0.95"></circle><circle r="7" cx="589" cy="14" stroke-width="2" stroke="hsl(184, 50%, 50%)" fill="none" opacity="0.15"></circle><circle r="12.5" cx="1154" cy="563" stroke-width="2" stroke="hsl(214, 50%, 50%)" fill="none" opacity="0.20"></circle><circle r="17" cx="664" cy="510" stroke-width="2" stroke="hsl(282, 50%, 50%)" fill="none" opacity="0.30"></circle><circle r="20.5" cx="618" cy="394" stroke-width="2" stroke="hsl(273, 50%, 50%)" fill="none" opacity="0.61"></circle><circle r="12.5" cx="725" cy="261" stroke-width="2" stroke="hsl(289, 50%, 50%)" fill="none" opacity="0.26"></circle><circle r="11.5" cx="232" cy="364" stroke-width="2" stroke="hsl(174, 50%, 50%)" fill="none" opacity="0.15"></circle><circle r="17" cx="777" cy="539" stroke-width="2" stroke="hsl(292, 50%, 50%)" fill="none" opacity="0.13"></circle><circle r="11.5" cx="1189" cy="675" stroke-width="2" stroke="hsl(186, 50%, 50%)" fill="none" opacity="0.12"></circle><circle r="13" cx="549" cy="695" stroke-width="2" stroke="hsl(255, 50%, 50%)" fill="none" opacity="0.96"></circle><circle r="18.5" cx="508" cy="286" stroke-width="2" stroke="hsl(239, 50%, 50%)" fill="none" opacity="0.53"></circle><circle r="14" cx="451" cy="625" stroke-width="2" stroke="hsl(222, 50%, 50%)" fill="none" opacity="0.62"></circle><circle r="11.5" cx="344" cy="235" stroke-width="2" stroke="hsl(181, 50%, 50%)" fill="none" opacity="0.13"></circle><circle r="19.5" cx="900" cy="540" stroke-width="2" stroke="hsl(289, 50%, 50%)" fill="none" opacity="0.95"></circle><circle r="10.5" cx="1389" cy="305" stroke-width="2" stroke="hsl(54, 50%, 50%)" fill="none" opacity="0.89"></circle><circle r="10" cx="232" cy="162" stroke-width="2" stroke="hsl(161, 50%, 50%)" fill="none" opacity="0.27"></circle><circle r="14" cx="630" cy="553" stroke-width="2" stroke="hsl(278, 50%, 50%)" fill="none" opacity="0.65"></circle><circle r="12" cx="363" cy="353" stroke-width="2" stroke="hsl(188, 50%, 50%)" fill="none" opacity="0.30"></circle><circle r="14.5" cx="849" cy="424" stroke-width="2" stroke="hsl(291, 50%, 50%)" fill="none" opacity="0.70"></circle><circle r="13" cx="736" cy="661" stroke-width="2" stroke="hsl(291, 50%, 50%)" fill="none" opacity="0.73"></circle><circle r="9.5" cx="1351" cy="415" stroke-width="2" stroke="hsl(80, 50%, 50%)" fill="none" opacity="0.83"></circle><circle r="12.5" cx="459" cy="693" stroke-width="2" stroke="hsl(222, 50%, 50%)" fill="none" opacity="0.28"></circle><circle r="11" cx="1388" cy="569" stroke-width="2" stroke="hsl(54, 50%, 50%)" fill="none" opacity="0.70"></circle><circle r="9.5" cx="271" cy="66" stroke-width="2" stroke="hsl(86, 50%, 50%)" fill="none" opacity="0.85"></circle><circle r="17" cx="976" cy="23" stroke-width="2" stroke="hsl(334, 50%, 50%)" fill="none" opacity="0.87"></circle><circle r="12" cx="399" cy="425" stroke-width="2" stroke="hsl(195, 50%, 50%)" fill="none" opacity="0.42"></circle><circle r="9.5" cx="1017" cy="256" stroke-width="2" stroke="hsl(271, 50%, 50%)" fill="none" opacity="0.27"></circle><circle r="10" cx="497" cy="60" stroke-width="2" stroke="hsl(163, 50%, 50%)" fill="none" opacity="0.94"></circle><circle r="10.5" cx="538" cy="109" stroke-width="2" stroke="hsl(209, 50%, 50%)" fill="none" opacity="0.76"></circle><circle r="20.5" cx="972" cy="676" stroke-width="2" stroke="hsl(281, 50%, 50%)" fill="none" opacity="0.96"></circle><circle r="10" cx="319" cy="726" stroke-width="2" stroke="hsl(176, 50%, 50%)" fill="none" opacity="0.75"></circle><circle r="14.5" cx="553" cy="465" stroke-width="2" stroke="hsl(255, 50%, 50%)" fill="none" opacity="0.25"></circle><circle r="15" cx="154" cy="240" stroke-width="2" stroke="hsl(205, 50%, 50%)" fill="none" opacity="0.38"></circle><circle r="14" cx="1202" cy="50" stroke-width="2" stroke="hsl(175, 50%, 50%)" fill="none" opacity="0.56"></circle><circle r="9.5" cx="318" cy="413" stroke-width="2" stroke="hsl(176, 50%, 50%)" fill="none" opacity="0.40"></circle><circle r="21" cx="670" cy="451" stroke-width="2" stroke="hsl(285, 50%, 50%)" fill="none" opacity="0.42"></circle><circle r="15.5" cx="186" cy="328" stroke-width="2" stroke="hsl(186, 50%, 50%)" fill="none" opacity="0.89"></circle><circle r="10" cx="364" cy="400" stroke-width="2" stroke="hsl(188, 50%, 50%)" fill="none" opacity="0.62"></circle><circle r="19" cx="637" cy="770" stroke-width="2" stroke="hsl(278, 50%, 50%)" fill="none" opacity="0.81"></circle><circle r="15" cx="1197" cy="458" stroke-width="2" stroke="hsl(186, 50%, 50%)" fill="none" opacity="0.26"></circle><circle r="17.5" cx="21" cy="705" stroke-width="2" stroke="hsl(288, 50%, 50%)" fill="none" opacity="0.98"></circle><circle r="13" cx="506" cy="727" stroke-width="2" stroke="hsl(239, 50%, 50%)" fill="none" opacity="0.73"></circle><circle r="22.5" cx="31" cy="596" stroke-width="2" stroke="hsl(274, 50%, 50%)" fill="none" opacity="0.51"></circle><circle r="14" cx="1004" cy="209" stroke-width="2" stroke="hsl(271, 50%, 50%)" fill="none" opacity="0.14"></circle><circle r="6.5" cx="1400" cy="162" stroke-width="2" stroke="hsl(42, 50%, 50%)" fill="none" opacity="0.59"></circle><circle r="14.5" cx="685" cy="25" stroke-width="2" stroke="hsl(241, 50%, 50%)" fill="none" opacity="0.86"></circle><circle r="12" cx="1110" cy="430" stroke-width="2" stroke="hsl(238, 50%, 50%)" fill="none" opacity="0.84"></circle><circle r="16.5" cx="533" cy="163" stroke-width="2" stroke="hsl(244, 50%, 50%)" fill="none" opacity="0.79"></circle><circle r="13.5" cx="1103" cy="583" stroke-width="2" stroke="hsl(238, 50%, 50%)" fill="none" opacity="0.11"></circle><circle r="12" cx="1209" cy="247" stroke-width="2" stroke="hsl(171, 50%, 50%)" fill="none" opacity="0.38"></circle><circle r="17" cx="601" cy="451" stroke-width="2" stroke="hsl(273, 50%, 50%)" fill="none" opacity="0.45"></circle><circle r="16.5" cx="812" cy="315" stroke-width="2" stroke="hsl(292, 50%, 50%)" fill="none" opacity="0.35"></circle><circle r="13.5" cx="28" cy="65" stroke-width="2" stroke="hsl(197, 50%, 50%)" fill="none" opacity="0.77"></circle><circle r="16" cx="609" cy="122" stroke-width="2" stroke="hsl(247, 50%, 50%)" fill="none" opacity="0.23"></circle><circle r="14.5" cx="722" cy="177" stroke-width="2" stroke="hsl(288, 50%, 50%)" fill="none" opacity="0.73"></circle><circle r="13.5" cx="768" cy="335" stroke-width="2" stroke="hsl(292, 50%, 50%)" fill="none" opacity="0.11"></circle><circle r="13.5" cx="172" cy="540" stroke-width="2" stroke="hsl(195, 50%, 50%)" fill="none" opacity="0.26"></circle><circle r="12" cx="1096" cy="717" stroke-width="2" stroke="hsl(238, 50%, 50%)" fill="none" opacity="0.99"></circle><circle r="9" cx="43" cy="19" stroke-width="2" stroke="hsl(162, 50%, 50%)" fill="none" opacity="0.42"></circle><circle r="11.5" cx="265" cy="485" stroke-width="2" stroke="hsl(172, 50%, 50%)" fill="none" opacity="0.29"></circle><circle r="15.5" cx="1050" cy="555" stroke-width="2" stroke="hsl(257, 50%, 50%)" fill="none" opacity="0.17"></circle><circle r="9.5" cx="1338" cy="94" stroke-width="2" stroke="hsl(79, 50%, 50%)" fill="none" opacity="0.82"></circle><circle r="8.5" cx="718" cy="92" stroke-width="2" stroke="hsl(280, 50%, 50%)" fill="none" opacity="0.28"></circle><circle r="9" cx="318" cy="349" stroke-width="2" stroke="hsl(176, 50%, 50%)" fill="none" opacity="0.49"></circle><circle r="19.5" cx="33" cy="511" stroke-width="2" stroke="hsl(274, 50%, 50%)" fill="none" opacity="0.10"></circle><circle r="13.5" cx="1066" cy="618" stroke-width="2" stroke="hsl(257, 50%, 50%)" fill="none" opacity="0.34"></circle><circle r="15" cx="1238" cy="393" stroke-width="2" stroke="hsl(155, 50%, 50%)" fill="none" opacity="0.96"></circle><circle r="10.5" cx="1150" cy="781" stroke-width="2" stroke="hsl(214, 50%, 50%)" fill="none" opacity="0.60"></circle><circle r="13.5" cx="194" cy="451" stroke-width="2" stroke="hsl(186, 50%, 50%)" fill="none" opacity="0.44"></circle><circle r="10.5" cx="328" cy="453" stroke-width="2" stroke="hsl(176, 50%, 50%)" fill="none" opacity="0.85"></circle><circle r="10" cx="309" cy="305" stroke-width="2" stroke="hsl(173, 50%, 50%)" fill="none" opacity="0.27"></circle><circle r="12.5" cx="777" cy="674" stroke-width="2" stroke="hsl(292, 50%, 50%)" fill="none" opacity="0.14"></circle><circle r="10.5" cx="488" cy="666" stroke-width="2" stroke="hsl(231, 50%, 50%)" fill="none" opacity="0.23"></circle><circle r="15" cx="316" cy="127" stroke-width="2" stroke="hsl(133, 50%, 50%)" fill="none" opacity="0.31"></circle><circle r="15" cx="841" cy="54" stroke-width="2" stroke="hsl(316, 50%, 50%)" fill="none" opacity="0.52"></circle><circle r="12" cx="730" cy="39" stroke-width="2" stroke="hsl(265, 50%, 50%)" fill="none" opacity="0.87"></circle><circle r="9" cx="756" cy="14" stroke-width="2" stroke="hsl(283, 50%, 50%)" fill="none" opacity="0.88"></circle><circle r="9.5" cx="1209" cy="296" stroke-width="2" stroke="hsl(171, 50%, 50%)" fill="none" opacity="0.56"></circle><circle r="18.5" cx="96" cy="440" stroke-width="2" stroke="hsl(231, 50%, 50%)" fill="none" opacity="0.48"></circle><circle r="8.5" cx="1167" cy="32" stroke-width="2" stroke="hsl(219, 50%, 50%)" fill="none" opacity="0.70"></circle><circle r="14" cx="390" cy="264" stroke-width="2" stroke="hsl(195, 50%, 50%)" fill="none" opacity="0.43"></circle><circle r="17.5" cx="939" cy="269" stroke-width="2" stroke="hsl(284, 50%, 50%)" fill="none" opacity="0.82"></circle><circle r="9" cx="1154" cy="610" stroke-width="2" stroke="hsl(214, 50%, 50%)" fill="none" opacity="0.67"></circle><circle r="14" cx="781" cy="107" stroke-width="2" stroke="hsl(300, 50%, 50%)" fill="none" opacity="0.57"></circle><circle r="18.5" cx="619" cy="179" stroke-width="2" stroke="hsl(273, 50%, 50%)" fill="none" opacity="0.74"></circle><circle r="7" cx="1362" cy="142" stroke-width="2" stroke="hsl(62, 50%, 50%)" fill="none" opacity="0.10"></circle><circle r="17" cx="1112" cy="656" stroke-width="2" stroke="hsl(226, 50%, 50%)" fill="none" opacity="0.22"></circle><circle r="5.5" cx="492" cy="790" stroke-width="2" stroke="hsl(239, 50%, 50%)" fill="none" opacity="0.13"></circle><circle r="12.5" cx="228" cy="251" stroke-width="2" stroke="hsl(174, 50%, 50%)" fill="none" opacity="0.32"></circle><circle r="18" cx="593" cy="601" stroke-width="2" stroke="hsl(268, 50%, 50%)" fill="none" opacity="0.64"></circle><circle r="15" cx="1111" cy="267" stroke-width="2" stroke="hsl(226, 50%, 50%)" fill="none" opacity="0.79"></circle><circle r="7.5" cx="1399" cy="428" stroke-width="2" stroke="hsl(54, 50%, 50%)" fill="none" opacity="0.88"></circle><circle r="16" cx="796" cy="33" stroke-width="2" stroke="hsl(299, 50%, 50%)" fill="none" opacity="0.98"></circle><circle r="9" cx="311" cy="261" stroke-width="2" stroke="hsl(176, 50%, 50%)" fill="none" opacity="0.27"></circle><circle r="13.5" cx="443" cy="155" stroke-width="2" stroke="hsl(185, 50%, 50%)" fill="none" opacity="0.37"></circle><circle r="6" cx="15" cy="367" stroke-width="2" stroke="hsl(288, 50%, 50%)" fill="none" opacity="0.56"></circle><circle r="18" cx="877" cy="103" stroke-width="2" stroke="hsl(316, 50%, 50%)" fill="none" opacity="0.72"></circle><circle r="8" cx="1364" cy="635" stroke-width="2" stroke="hsl(66, 50%, 50%)" fill="none" opacity="0.50"></circle><circle r="15" cx="455" cy="346" stroke-width="2" stroke="hsl(222, 50%, 50%)" fill="none" opacity="0.73"></circle><circle r="19.5" cx="72" cy="377" stroke-width="2" stroke="hsl(245, 50%, 50%)" fill="none" opacity="0.99"></circle><circle r="18.5" cx="623" cy="244" stroke-width="2" stroke="hsl(278, 50%, 50%)" fill="none" opacity="0.69"></circle><circle r="12.5" cx="1302" cy="154" stroke-width="2" stroke="hsl(100, 50%, 50%)" fill="none" opacity="0.28"></circle><circle r="18" cx="1131" cy="193" stroke-width="2" stroke="hsl(226, 50%, 50%)" fill="none" opacity="0.71"></circle><circle r="16" cx="91" cy="513" stroke-width="2" stroke="hsl(231, 50%, 50%)" fill="none" opacity="0.94"></circle><circle r="10.5" cx="1049" cy="253" stroke-width="2" stroke="hsl(257, 50%, 50%)" fill="none" opacity="0.69"></circle><circle r="16.5" cx="389" cy="538" stroke-width="2" stroke="hsl(195, 50%, 50%)" fill="none" opacity="0.95"></circle><circle r="13.5" cx="1220" cy="604" stroke-width="2" stroke="hsl(171, 50%, 50%)" fill="none" opacity="0.74"></circle><circle r="19" cx="156" cy="637" stroke-width="2" stroke="hsl(195, 50%, 50%)" fill="none" opacity="0.50"></circle><circle r="16" cx="326" cy="508" stroke-width="2" stroke="hsl(176, 50%, 50%)" fill="none" opacity="0.73"></circle><circle r="8" cx="19" cy="342" stroke-width="2" stroke="hsl(288, 50%, 50%)" fill="none" opacity="0.53"></circle><circle r="9" cx="1395" cy="90" stroke-width="2" stroke="hsl(61, 50%, 50%)" fill="none" opacity="0.67"></circle><circle r="14" cx="96" cy="51" stroke-width="2" stroke="hsl(147, 50%, 50%)" fill="none" opacity="0.39"></circle><circle r="17" cx="1061" cy="34" stroke-width="2" stroke="hsl(300, 50%, 50%)" fill="none" opacity="0.40"></circle><circle r="13" cx="338" cy="183" stroke-width="2" stroke="hsl(181, 50%, 50%)" fill="none" opacity="0.70"></circle><circle r="11.5" cx="1383" cy="491" stroke-width="2" stroke="hsl(54, 50%, 50%)" fill="none" opacity="0.99"></circle><circle r="14" cx="37" cy="316" stroke-width="2" stroke="hsl(274, 50%, 50%)" fill="none" opacity="0.31"></circle><circle r="7.5" cx="408" cy="773" stroke-width="2" stroke="hsl(204, 50%, 50%)" fill="none" opacity="0.47"></circle><circle r="15" cx="822" cy="99" stroke-width="2" stroke="hsl(310, 50%, 50%)" fill="none" opacity="0.83"></circle><circle r="11" cx="431" cy="387" stroke-width="2" stroke="hsl(213, 50%, 50%)" fill="none" opacity="0.27"></circle><circle r="15" cx="514" cy="342" stroke-width="2" stroke="hsl(247, 50%, 50%)" fill="none" opacity="0.85"></circle><circle r="11.5" cx="629" cy="35" stroke-width="2" stroke="hsl(218, 50%, 50%)" fill="none" opacity="0.57"></circle><circle r="8" cx="428" cy="19" stroke-width="2" stroke="hsl(108, 50%, 50%)" fill="none" opacity="0.27"></circle><circle r="16" cx="655" cy="712" stroke-width="2" stroke="hsl(282, 50%, 50%)" fill="none" opacity="0.89"></circle><circle r="9" cx="270" cy="682" stroke-width="2" stroke="hsl(171, 50%, 50%)" fill="none" opacity="0.88"></circle><circle r="18" cx="213" cy="595" stroke-width="2" stroke="hsl(179, 50%, 50%)" fill="none" opacity="0.87"></circle><circle r="11" cx="1244" cy="663" stroke-width="2" stroke="hsl(155, 50%, 50%)" fill="none" opacity="0.11"></circle><circle r="15" cx="59" cy="650" stroke-width="2" stroke="hsl(260, 50%, 50%)" fill="none" opacity="0.13"></circle><circle r="15.5" cx="1018" cy="321" stroke-width="2" stroke="hsl(271, 50%, 50%)" fill="none" opacity="0.92"></circle><circle r="13.5" cx="568" cy="294" stroke-width="2" stroke="hsl(262, 50%, 50%)" fill="none" opacity="0.25"></circle><circle r="9.5" cx="1283" cy="638" stroke-width="2" stroke="hsl(124, 50%, 50%)" fill="none" opacity="0.17"></circle><circle r="15" cx="789" cy="415" stroke-width="2" stroke="hsl(292, 50%, 50%)" fill="none" opacity="0.78"></circle><circle r="21" cx="882" cy="316" stroke-width="2" stroke="hsl(290, 50%, 50%)" fill="none" opacity="0.20"></circle><circle r="15" cx="1054" cy="141" stroke-width="2" stroke="hsl(265, 50%, 50%)" fill="none" opacity="0.81"></circle><circle r="14" cx="1104" cy="764" stroke-width="2" stroke="hsl(238, 50%, 50%)" fill="none" opacity="0.47"></circle><circle r="9" cx="489" cy="20" stroke-width="2" stroke="hsl(139, 50%, 50%)" fill="none" opacity="0.63"></circle><circle r="13" cx="1108" cy="32" stroke-width="2" stroke="hsl(270, 50%, 50%)" fill="none" opacity="0.41"></circle><circle r="12" cx="1308" cy="748" stroke-width="2" stroke="hsl(109, 50%, 50%)" fill="none" opacity="0.79"></circle><circle r="20.5" cx="677" cy="371" stroke-width="2" stroke="hsl(285, 50%, 50%)" fill="none" opacity="0.24"></circle><circle r="18.5" cx="826" cy="163" stroke-width="2" stroke="hsl(297, 50%, 50%)" fill="none" opacity="0.23"></circle><circle r="12" cx="1026" cy="663" stroke-width="2" stroke="hsl(265, 50%, 50%)" fill="none" opacity="0.54"></circle></svg>